<svg width="21" height="18" viewBox="0 0 21 18" fill="none" xmlns="http://www.w3.org/2000/svg">
<path d="M6.9375 1.02344C7.28906 1.375 7.32812 1.96094 6.97656 2.35156L4.16406 5.47656C4.00781 5.63281 3.77344 5.75 3.5 5.75C3.26562 5.78906 2.99219 5.67188 2.83594 5.47656L1.27344 3.91406C0.882812 3.5625 0.882812 2.97656 1.27344 2.625C1.625 2.23438 2.21094 2.23438 2.5625 2.625L3.46094 3.48438L5.60938 1.0625C5.96094 0.710938 6.54688 0.671875 6.9375 1.02344ZM6.9375 7.27344C7.28906 7.58594 7.32812 8.21094 6.97656 8.60156L4.16406 11.7266C4.00781 11.8828 3.77344 12 3.5 12C3.26562 12.0391 2.99219 11.9219 2.83594 11.7266L1.27344 10.1641C0.882812 9.8125 0.882812 9.22656 1.27344 8.83594C1.625 8.48438 2.21094 8.48438 2.5625 8.83594L3.46094 9.73438L5.60938 7.3125C5.96094 6.96094 6.54688 6.92188 6.9375 7.27344ZM9.75 3.25C9.75 2.58594 10.2969 2 11 2H19.75C20.4141 2 21 2.58594 21 3.25C21 3.95312 20.4141 4.5 19.75 4.5H11C10.2969 4.5 9.75 3.95312 9.75 3.25ZM9.75 9.5C9.75 8.83594 10.2969 8.25 11 8.25H19.75C20.4141 8.25 21 8.83594 21 9.5C21 10.2031 20.4141 10.75 19.75 10.75H11C10.2969 10.75 9.75 10.2031 9.75 9.5ZM7.25 15.75C7.25 15.0859 7.79688 14.5 8.5 14.5H19.75C20.4141 14.5 21 15.0859 21 15.75C21 16.4531 20.4141 17 19.75 17H8.5C7.79688 17 7.25 16.4531 7.25 15.75ZM1 15.75C1 14.7344 1.82031 13.875 2.875 13.875C3.89062 13.875 4.75 14.7344 4.75 15.75C4.75 16.8047 3.89062 17.625 2.875 17.625C1.82031 17.625 1 16.8047 1 15.75Z" fill="#363545"/>
</svg>