<svg width="23" height="21" viewBox="0 0 23 21" fill="none" xmlns="http://www.w3.org/2000/svg">
<path d="M0.25 3C0.25 1.63281 1.34375 0.5 2.75 0.5H20.25C21.6172 0.5 22.75 1.63281 22.75 3V14.25C22.75 15.6562 21.6172 16.75 20.25 16.75H13.375L13.7656 18H16.5C17.1641 18 17.75 18.5859 17.75 19.25C17.75 19.9531 17.1641 20.5 16.5 20.5H6.5C5.79688 20.5 5.25 19.9531 5.25 19.25C5.25 18.5859 5.79688 18 6.5 18H9.19531L9.625 16.75H2.75C1.34375 16.75 0.25 15.6562 0.25 14.25V3ZM2.75 3V14.25H20.25V3H2.75ZM14.9375 4.25H18.0625C18.5703 4.25 19 4.67969 19 5.1875V8.3125C19 8.85938 18.5703 9.25 18.0625 9.25C17.5156 9.25 17.125 8.85938 17.125 8.3125V7.45312L12.7891 11.7891C12.5938 11.9844 12.3594 12.0625 12.125 12.0625C11.8516 12.0625 11.6172 11.9844 11.4609 11.7891L9 9.32812L5.60156 12.7266C5.21094 13.1172 4.625 13.1172 4.27344 12.7266C3.88281 12.375 3.88281 11.7891 4.27344 11.4375L8.33594 7.33594C8.6875 6.98438 9.27344 6.98438 9.625 7.33594L12.0859 9.79688L15.7969 6.125H14.9375C14.3906 6.125 14 5.73438 14 5.1875C14 4.67969 14.3906 4.25 14.9375 4.25Z" fill="#363545"/>
</svg>